<svg xmlns="http://www.w3.org/2000/svg" viewBox="0 0 120 160"><defs><linearGradient id="l" x1="80" y1="12" x2="35" y2="98"><stop stop-color="#fff"/><stop offset=".28" stop-color="#babcc0"/><stop offset=".65" stop-color="#3b3d42"/><stop offset="1" stop-color="#111216"/></linearGradient><linearGradient id="r" x1="42" y1="65" x2="84" y2="146"><stop stop-color="#1a1b1f"/><stop offset=".5" stop-color="#77797e"/><stop offset=".8" stop-color="#f4f4f5"/><stop offset="1" stop-color="#55575c"/></linearGradient><filter id="g"><feGaussianBlur stdDeviation="5"/></filter></defs><path d="M71 9C57 26 37 35 26 52 11 75 24 101 51 111c-2-18 4-34 13-50 8-15 8-32 7-52Z" fill="url(#l)" stroke="#e6e6e8" stroke-width=".6"/><path d="M51 111c2-18 4-29 13-50 30 10 43 37 30 59-8 14-23 23-39 35 1-23-2-30-4-44Z" fill="url(#r)" stroke="#d7d7da" stroke-width=".6"/><path d="M71 9c1 21 1 38-7 52-9 17-13 31-13 50" fill="none" stroke="#fff" stroke-width="1.2"/><ellipse cx="62" cy="82" rx="42" ry="59" fill="none" stroke="#fff" opacity=".1" filter="url(#g)"/></svg>
