<svg xmlns="http://www.w3.org/2000/svg" viewBox="0 0 100 100" role="img" aria-labelledby="title">
  <title id="title">ORIN</title>
  <defs>
    <radialGradient id="base" cx="68%" cy="12%" r="92%">
      <stop offset="0" stop-color="#f5f5f6"/>
      <stop offset=".2" stop-color="#b8b9bc"/>
      <stop offset=".54" stop-color="#515258"/>
      <stop offset="1" stop-color="#111216"/>
    </radialGradient>
    <linearGradient id="upper" x1="28" y1="17" x2="78" y2="72">
      <stop offset="0" stop-color="#77787d"/>
      <stop offset=".48" stop-color="#d6d6d8"/>
      <stop offset="1" stop-color="#3b3c41"/>
    </linearGradient>
    <linearGradient id="lower" x1="20" y1="48" x2="79" y2="87">
      <stop offset="0" stop-color="#020305"/>
      <stop offset=".72" stop-color="#17181c"/>
      <stop offset="1" stop-color="#34353a"/>
    </linearGradient>
    <linearGradient id="fold" x1="89" y1="56" x2="64" y2="81">
      <stop offset="0" stop-color="#35363b"/>
      <stop offset="1" stop-color="#111216"/>
    </linearGradient>
    <linearGradient id="rim" x1="20" y1="20" x2="82" y2="87">
      <stop offset="0" stop-color="#4a4b50"/>
      <stop offset=".25" stop-color="#f8f8f9"/>
      <stop offset=".6" stop-color="#74757a"/>
      <stop offset=".86" stop-color="#fafafa"/>
      <stop offset="1" stop-color="#3d3e43"/>
    </linearGradient>
    <filter id="shadow" x="-20%" y="-20%" width="140%" height="150%">
      <feDropShadow dx="0" dy="3" stdDeviation="3.5" flood-color="#000" flood-opacity=".7"/>
    </filter>
    <clipPath id="clip"><circle cx="50" cy="50" r="41.8"/></clipPath>
  </defs>
  <g filter="url(#shadow)">
    <circle cx="50" cy="50" r="43" fill="url(#rim)"/>
    <circle cx="50" cy="50" r="41.6" fill="url(#base)"/>
    <g clip-path="url(#clip)">
      <path d="M7 42C17 18 33 8 53 8c27 0 43 18 44 44-9 15-45 16-66-1C21 43 14 39 7 42Z" fill="url(#upper)"/>
      <path d="M8 43c12-3 28 3 41 11 14 9 26 21 31 33-9 6-19 8-30 8C22 95 7 75 8 43Z" fill="url(#lower)"/>
      <path d="M48 54c17 11 26 24 32 33 9-7 14-18 16-33-13 10-31 10-48 0Z" fill="url(#fold)" opacity=".97"/>
      <path d="M11 32c1 8 9 15 21 19-11-7-17-15-18-24Z" fill="#0b0c0f" opacity=".75"/>
      <path d="M8 43c20-4 49 10 72 44" fill="none" stroke="#818287" stroke-opacity=".55" stroke-width=".7"/>
      <path d="M12 31C25 9 54 2 76 16" fill="none" stroke="#fff" stroke-opacity=".38" stroke-width=".65"/>
    </g>
    <circle cx="50" cy="50" r="41.7" fill="none" stroke="#fff" stroke-opacity=".36" stroke-width=".7"/>
  </g>
</svg>
